<?xml version="1.0" standalone="no"?>
<!DOCTYPE svg PUBLIC "-//W3C//DTD SVG 20010904//EN"
 "http://www.w3.org/TR/2001/REC-SVG-20010904/DTD/svg10.dtd">
<svg version="1.0" xmlns="http://www.w3.org/2000/svg"
 width="81.000000pt" height="86.000000pt" viewBox="0 0 81.000000 86.000000"
 preserveAspectRatio="xMidYMid meet">

<g transform="translate(0.000000,86.000000) scale(0.100000,-0.100000)"
fill="#000000" stroke="none">
<path d="M320 689 c-49 -20 -70 -49 -70 -97 0 -34 -7 -53 -30 -82 -43 -54 -60
-101 -60 -162 1 -79 27 -125 142 -243 l103 -107 103 106 c58 59 111 124 122
148 38 83 21 189 -43 264 -20 24 -27 43 -27 76 0 49 -22 78 -73 97 -35 14
-133 13 -167 0z m170 -177 c78 -39 117 -143 86 -227 -45 -116 -182 -156 -280
-81 -139 105 -65 326 109 326 28 0 65 -8 85 -18z"/>
</g>
</svg>
